<svg xmlns="http://www.w3.org/2000/svg" viewBox="0 0 564.76 338.52"><defs><style>.cls-1{fill:none;stroke:#069bef;stroke-miterlimit:10;}.cls-2{fill:#069bef;}</style></defs><title>Abstract Line 2</title><g id="Layer_2" data-name="Layer 2"><g id="Layer_1-2" data-name="Layer 1"><path class="cls-1" d="M5.81,7.62,111.55,118.88,291.78,37.05,124.43,28.77l-12.88,92.87,180.23,44.14L228.33,67.39,507.87,186.93,428.79,14.06,293.62,165.78l209.65-18.39L403,206.24l-107.58-37.7s206,166.43,206,164.59-98.39-125-98.39-125L564,244.86l-55.17,88.27"/><path class="cls-2" d="M112.79,124.73c7.73,0,7.74-12,0-12s-7.73,12,0,12Z"/><path class="cls-2" d="M228.31,74.06c7.73,0,7.74-12,0-12s-7.73,12,0,12Z"/><path class="cls-2" d="M294.79,173.77c7.72,0,7.74-12,0-12s-7.73,12,0,12Z"/><path class="cls-2" d="M339.48,120.37c7.72,0,7.73-12,0-12s-7.74,12,0,12Z"/><path class="cls-2" d="M431.56,158.52c7.73,0,7.74-12,0-12s-7.73,12,0,12Z"/><path class="cls-2" d="M403.23,213.55c7.72,0,7.73-12,0-12s-7.74,12,0,12Z"/><path class="cls-2" d="M466.44,176.5c7.72,0,7.73-12,0-12s-7.74,12,0,12Z"/><path class="cls-2" d="M42,50.62c7.72,0,7.73-12,0-12s-7.74,12,0,12Z"/><path class="cls-2" d="M5.8,12c7.72,0,7.73-12,0-12s-7.74,12,0,12Z"/><path class="cls-2" d="M505.65,338.52c7.72,0,7.73-12,0-12s-7.74,12,0,12Z"/></g></g></svg>