<svg xmlns="http://www.w3.org/2000/svg" viewBox="0 0 1859.89 117.47"><defs><style>.cls-1{fill:none;stroke:#069bef;stroke-miterlimit:10;}.cls-2{fill:#069bef;}</style></defs><title>Abstract Line 4</title><g id="Layer_2" data-name="Layer 2"><g id="Layer_3" data-name="Layer 3"><polyline class="cls-1" points="0.09 88.22 335.86 27.17 526.41 88.22 312.74 88.22 335.86 28.1 275.74 88.22 17.66 69.72 75.01 106.72 386.74 100.25 710.49 17 758.59 100.25 483.86 106.72 841.84 43.82 765.99 17 712.34 17"/><path class="cls-1" d="M841.84,44.75l-66.6,48.1h66.6l1.85-48.1,118.4,48.1S1216.46,16.07,1220.16,17s54.58,75.85,54.58,75.85l-296-22.2-25.9,46.25,252.52-20.35,14.8-78.63,407,70.3h-288.6L1693.76,29v59.2h162.8L1712.26,5.9l-84.17,100.82"/><path class="cls-2" d="M336.41,32.56c7.72,0,7.74-12,0-12s-7.73,12,0,12Z"/><path class="cls-2" d="M710.93,24.06c7.73,0,7.74-12,0-12s-7.73,12,0,12Z"/><path class="cls-2" d="M766.43,24.06c7.73,0,7.74-12,0-12s-7.73,12,0,12Z"/><path class="cls-2" d="M736.15,68.46c7.72,0,7.73-12,0-12s-7.73,12,0,12Z"/><path class="cls-2" d="M487.29,80.52c7.72,0,7.73-12,0-12s-7.73,12,0,12Z"/><path class="cls-2" d="M841.94,51.47c7.72,0,7.74-12,0-12s-7.73,12,0,12Z"/><path class="cls-2" d="M963.08,96.41c7.72,0,7.74-12,0-12s-7.73,12,0,12Z"/><path class="cls-2" d="M1023.93,80.52c7.72,0,7.73-12,0-12s-7.74,12,0,12Z"/><path class="cls-2" d="M1220.71,25.16c7.72,0,7.74-12,0-12s-7.73,12,0,12Z"/><path class="cls-2" d="M1274.43,94.77c7.72,0,7.74-12,0-12s-7.73,12,0,12Z"/><path class="cls-2" d="M1206.46,90.39c7.72,0,7.73-12,0-12s-7.73,12,0,12Z"/><path class="cls-2" d="M1484.1,69.56c7.72,0,7.73-12,0-12s-7.74,12,0,12Z"/><path class="cls-2" d="M1693.76,36.67c7.73,0,7.74-12,0-12s-7.73,12,0,12Z"/><path class="cls-2" d="M1633.74,95c7.72,0,7.74-12,0-12s-7.73,12,0,12Z"/><path class="cls-2" d="M1711.85,12c7.72,0,7.74-12,0-12s-7.73,12,0,12Z"/><path class="cls-2" d="M1854.1,93.4c7.72,0,7.73-12,0-12s-7.74,12,0,12Z"/></g></g></svg>