<svg xmlns="http://www.w3.org/2000/svg" viewBox="0 0 1371.57 287.04"><defs><style>.cls-1{fill:#069bef;}.cls-2{fill:none;stroke:#069bef;stroke-miterlimit:10;}</style></defs><title>Abstract Line 3_1</title><g id="Layer_2" data-name="Layer 2"><g id="Layer_1-2" data-name="Layer 1"><path class="cls-1" d="M813.16,29.71c7.72,0,7.73-12,0-12s-7.74,12,0,12Z"/><path class="cls-1" d="M463.87,175.74c7.72,0,7.74-12,0-12s-7.73,12,0,12Z"/><path class="cls-1" d="M813.16,287c7.72,0,7.73-12,0-12s-7.74,12,0,12Z"/><path class="cls-1" d="M581.43,128.06c7.73,0,7.74-12,0-12s-7.73,12,0,12Z"/><path class="cls-1" d="M133.11,79.84c7.73,0,7.74-12,0-12s-7.73,12,0,12Z"/><path class="cls-1" d="M423.55,17.33c7.72,0,7.73-12,0-12s-7.73,12,0,12Z"/><path class="cls-1" d="M454.22,24c7.72,0,7.73-12,0-12s-7.74,12,0,12Z"/><path class="cls-1" d="M877.77,12c7.72,0,7.74-12,0-12s-7.73,12,0,12Z"/><polyline class="cls-2" points="0.14 34.76 463.58 169.93 813 23.72 450.71 19.13 463.58 169.93 813 283.03 1363.8 26.48 875.53 5.33 813 279.35 422.2 11.77"/><path class="cls-1" d="M1365.77,33.33c7.72,0,7.74-12,0-12s-7.73,12,0,12Z"/></g></g></svg>