<svg xmlns="http://www.w3.org/2000/svg" viewBox="0 0 1924 643.32"><defs><style>.cls-1{opacity:0.4;}.cls-2{fill:none;stroke:#069bef;stroke-miterlimit:10;}.cls-3{fill:#069bef;}</style></defs><title>Abstract Line 1_4</title><g id="Layer_2" data-name="Layer 2"><g id="Layer_5" data-name="Layer 5" class="cls-1"><polygon class="cls-2" points="5.74 524.71 617.74 442.7 1293.74 591.71 747.74 638.71 617.74 445.7 310.38 590.21 5.74 590.71 5.74 524.71"/><path class="cls-3" d="M618.39,450.13c7.72,0,7.73-12,0-12s-7.74,12,0,12Z"/><path class="cls-3" d="M267,497c7.72,0,7.74-12,0-12s-7.73,12,0,12Z"/><path class="cls-3" d="M1292,597.32c7.72,0,7.74-12,0-12s-7.73,12,0,12Z"/><polyline class="cls-2" points="1179.74 593.71 1319.74 563.71 1408.74 593.71 1330.74 593.71 1319.74 564.71 1414.74 547.71 1666.74 593.71 1450.74 593.71 1782.74 509.7 1923.74 593.71"/><path class="cls-3" d="M1320.46,571.32c7.72,0,7.74-12,0-12s-7.73,12,0,12Z"/><path class="cls-3" d="M1414.24,554.43c7.72,0,7.73-12,0-12s-7.73,12,0,12Z"/><path class="cls-3" d="M1542.68,577.09c7.73,0,7.74-12,0-12s-7.73,12,0,12Z"/><path class="cls-3" d="M1781.8,515.76c7.72,0,7.73-12,0-12s-7.74,12,0,12Z"/><path class="cls-3" d="M748.17,643.32c7.72,0,7.73-12,0-12s-7.74,12,0,12Z"/><path class="cls-3" d="M1409.35,599.76c7.72,0,7.74-12,0-12s-7.73,12,0,12Z"/><path class="cls-3" d="M1449.35,600.21c7.72,0,7.74-12,0-12s-7.73,12,0,12Z"/><path class="cls-3" d="M1666.09,599.46c7.72,0,7.74-12,0-12s-7.73,12,0,12Z"/></g><g id="Layer_4" data-name="Layer 4"><polyline class="cls-2" points="5.74 0.2 152.74 327.2 5.74 350.2 88.24 189.71 6.24 476.7 153.24 328.7 332.24 431.7 5.24 592.71 153.24 329.7 280.24 592.71 91.24 592.71 79.24 463.7 679.24 545.71 281.24 592.71 267.24 490.7 333.24 432.7 591.24 592.71 721.24 521.71 833.24 593.71 718.74 594.71 721.24 523.71 865.24 442.7 787.24 562.71 1115.24 593.71 866.24 442.7 1004.24 593.71 1158.24 551.71 1231.24 593.71 1117.24 593.71"/><path class="cls-3" d="M88.61,195.32c7.72,0,7.73-12,0-12s-7.73,12,0,12Z"/><path class="cls-3" d="M151.43,336.35c7.72,0,7.73-12,0-12s-7.74,12,0,12Z"/><path class="cls-3" d="M44.76,351.17c7.72,0,7.73-12,0-12s-7.74,12,0,12Z"/><path class="cls-3" d="M225.5,490.43c7.72,0,7.73-12,0-12s-7.73,12,0,12Z"/><path class="cls-3" d="M332.76,438.87c7.72,0,7.73-12,0-12s-7.74,12,0,12Z"/><path class="cls-3" d="M78.24,471.32c7.72,0,7.73-12,0-12s-7.73,12,0,12Z"/><path class="cls-3" d="M589.8,597.54c7.72,0,7.73-12,0-12s-7.74,12,0,12Z"/><path class="cls-3" d="M678.68,551.76c7.73,0,7.74-12,0-12s-7.73,12,0,12Z"/><path class="cls-3" d="M281.35,598c7.72,0,7.74-12,0-12s-7.73,12,0,12Z"/><path class="cls-3" d="M5.8,596.21c7.72,0,7.73-12,0-12s-7.74,12,0,12Z"/><path class="cls-3" d="M786.24,570c7.72,0,7.73-12,0-12s-7.73,12,0,12Z"/><path class="cls-3" d="M722.24,530.43c7.72,0,7.73-12,0-12s-7.73,12,0,12Z"/><path class="cls-3" d="M864.46,449.09c7.72,0,7.74-12,0-12s-7.73,12,0,12Z"/><path class="cls-3" d="M1003.57,600.65c7.73,0,7.74-12,0-12s-7.73,12,0,12Z"/><path class="cls-3" d="M1116,599.76c7.72,0,7.73-12,0-12s-7.74,12,0,12Z"/><path class="cls-3" d="M1157.94,558.87c7.73,0,7.74-12,0-12s-7.73,12,0,12Z"/><path class="cls-3" d="M266.94,496.93c7.73,0,7.74-12,0-12s-7.73,12,0,12Z"/><path class="cls-3" d="M718.83,600.65c7.72,0,7.74-12,0-12s-7.73,12,0,12Z"/></g></g></svg>