<svg width="761" height="875" viewBox="0 0 761 875" fill="none" xmlns="http://www.w3.org/2000/svg">
<path d="M-2.69 0.170044L101.81 299.67L-2.19 382.67V247.66L98.81 297.67L159.81 369.67L-1.19 384.67L131.81 551.66L159.81 370.67L328.81 524.66L-2.19 867.66V393.67L59.81 682.66L130.81 555.66L324.81 524.66L355.81 775.66L1.81 867.66H531.81L357.81 777.66L410.81 619.66L332.81 525.66L507.81 636.66L413.81 619.66L752.81 867.66H547.81L510.81 638.66L629.81 622.66L661.81 796.66L513.81 641.66" stroke="#069BEF" stroke-miterlimit="10"/>
<path d="M159.2 376.45C166.86 376.45 166.87 364.54 159.2 364.54C151.53 364.54 151.52 376.45 159.2 376.45Z" fill="#069BEF"/>
<path d="M-1.25 392.45C6.41 392.45 6.42 380.54 -1.25 380.54C-8.92 380.54 -8.92 392.45 -1.25 392.45Z" fill="#069BEF"/>
<path d="M101 307.12C108.66 307.12 108.68 295.21 101 295.21C93.32 295.21 93.33 307.12 101 307.12Z" fill="#069BEF"/>
<path d="M131.79 558.82C139.45 558.82 139.46 546.92 131.79 546.92C124.12 546.92 124.11 558.82 131.79 558.82Z" fill="#069BEF"/>
<path d="M58.9 688.6C66.56 688.6 66.57 676.69 58.9 676.69C51.23 676.69 51.22 688.6 58.9 688.6Z" fill="#069BEF"/>
<path d="M411.2 624.45C418.86 624.45 418.87 612.54 411.2 612.54C403.53 612.54 403.52 624.45 411.2 624.45Z" fill="#069BEF"/>
<path d="M356.53 782.67C364.19 782.67 364.2 770.77 356.53 770.77C348.86 770.77 348.85 782.67 356.53 782.67Z" fill="#069BEF"/>
<path d="M142.31 810.67C149.97 810.67 149.98 798.77 142.31 798.77C134.64 798.77 134.63 810.67 142.31 810.67Z" fill="#069BEF"/>
<path d="M511.94 645.34C519.6 645.34 519.61 633.43 511.94 633.43C504.27 633.43 504.26 645.34 511.94 645.34Z" fill="#069BEF"/>
<path d="M630.45 627.56C638.12 627.56 638.13 615.66 630.45 615.66C622.77 615.66 622.78 627.56 630.45 627.56Z" fill="#069BEF"/>
<path d="M659.64 802.23C667.3 802.23 667.31 790.32 659.64 790.32C651.97 790.32 651.97 802.23 659.64 802.23Z" fill="#069BEF"/>
<path d="M530.75 873.34C538.41 873.34 538.42 861.43 530.75 861.43C523.08 861.43 523.08 873.34 530.75 873.34Z" fill="#069BEF"/>
<path d="M327.64 531.12C335.3 531.12 335.31 519.21 327.64 519.21C319.97 519.21 319.97 531.12 327.64 531.12Z" fill="#069BEF"/>
<path d="M550.31 872.9C557.97 872.9 557.98 860.99 550.31 860.99C542.64 860.99 542.63 872.9 550.31 872.9Z" fill="#069BEF"/>
<path d="M0.529993 874.23C8.18999 874.23 8.19999 862.32 0.529993 862.32C-7.14001 862.32 -7.15001 874.23 0.529993 874.23Z" fill="#069BEF"/>
<path d="M755.2 873.78C762.86 873.78 762.87 861.88 755.2 861.88C747.53 861.88 747.52 873.78 755.2 873.78Z" fill="#069BEF"/>
<path d="M-1.25 253.34C6.41 253.34 6.42 241.43 -1.25 241.43C-8.92 241.43 -8.92 253.34 -1.25 253.34Z" fill="#069BEF"/>
</svg>
