<svg width="82" height="82" viewBox="0 0 82 82" fill="none" xmlns="http://www.w3.org/2000/svg">
<path d="M41 81C63.0914 81 81 63.0914 81 41C81 18.9086 63.0914 1 41 1C18.9086 1 1 18.9086 1 41C1 63.0914 18.9086 81 41 81Z" fill="url(#paint0_linear_1528_29745)" stroke="black" stroke-width="0.5"/>
<path d="M14 33.8277L41 7L68 33.8277L54.7513 46.9918L41.2596 33.5862L41.0172 33.3453L40.7741 33.5862L27.2741 47L14 33.8277Z" fill="#FFF6F0" stroke="black"/>
<path d="M19.968 51.1992H30.576V54.2232H23.136V58.0632H30.288V61.0872H23.136V64.9752H30.864V67.9992H19.968V51.1992ZM46.0873 51.1992V62.1912C46.0873 64.1112 45.5753 65.6152 44.5513 66.7032C43.5433 67.7912 42.0393 68.3352 40.0393 68.3352C38.0393 68.3352 36.5273 67.7912 35.5033 66.7032C34.4953 65.6152 33.9913 64.1112 33.9913 62.1912V51.1992H37.1593V62.1912C37.1593 63.1832 37.3913 63.9592 37.8553 64.5192C38.3193 65.0792 39.0473 65.3592 40.0393 65.3592C41.0313 65.3592 41.7593 65.0792 42.2233 64.5192C42.6873 63.9592 42.9193 63.1832 42.9193 62.1912V51.1992H46.0873ZM60.4226 67.9992H57.2546V62.9592C57.2546 62.5752 57.1506 62.2632 56.9426 62.0232C56.7506 61.7832 56.4226 61.6632 55.9586 61.6632H52.3106V67.9992H49.1426V51.1992H55.5746C56.4386 51.1992 57.1986 51.3192 57.8546 51.5592C58.5106 51.7992 59.0546 52.1352 59.4866 52.5672C59.9346 52.9832 60.2706 53.4712 60.4946 54.0312C60.7346 54.5912 60.8546 55.1912 60.8546 55.8312V56.4072C60.8546 57.0952 60.6706 57.7432 60.3026 58.3512C59.9346 58.9432 59.3666 59.3992 58.5986 59.7192V60.1512C59.1586 60.2152 59.5986 60.4312 59.9186 60.7992C60.2546 61.1672 60.4226 61.6312 60.4226 62.1912V67.9992ZM52.3106 58.6392H55.3346C56.1026 58.6392 56.6866 58.4632 57.0866 58.1112C57.4866 57.7432 57.6866 57.2312 57.6866 56.5752V56.2872C57.6866 55.7272 57.4866 55.2472 57.0866 54.8472C56.6866 54.4312 56.1026 54.2232 55.3346 54.2232H52.3106V58.6392Z" fill="#2A363A"/>
<defs>
<linearGradient id="paint0_linear_1528_29745" x1="41" y1="1" x2="41" y2="81" gradientUnits="userSpaceOnUse">
<stop stop-color="#99B998"/>
<stop offset="1" stop-color="#FDCEAA"/>
</linearGradient>
</defs>
</svg>
