<?xml version="1.0" encoding="UTF-8"?>
<svg width="179px" height="32px" viewBox="0 0 179 32" version="1.1" xmlns="http://www.w3.org/2000/svg" xmlns:xlink="http://www.w3.org/1999/xlink">
    <!-- Generator: sketchtool 64 (101010) - https://sketch.com/ -->
    <title>064129B1-4368-42B6-B206-7EF15C2BA6BC</title>
    <desc>Created with sketchtool.</desc>
    <defs>
        <polygon id="path-1" points="0 0.132239994 17.0823112 0.132239994 17.0823112 19.3123191 0 19.3123191"></polygon>
        <polygon id="path-3" points="0.0466559979 0.165119993 15.3070553 0.165119993 15.3070553 13.3281354 0.0466559979 13.3281354"></polygon>
        <polygon id="path-5" points="0.0466559979 0.0370919983 15.3070553 0.0370919983 15.3070553 13.1999994 0.0466559979 13.1999994"></polygon>
        <polygon id="path-7" points="0 31.2748786 178.689832 31.2748786 178.689832 0.239999989 0 0.239999989"></polygon>
    </defs>
    <g id="Page-1" stroke="none" stroke-width="1" fill="none" fill-rule="evenodd">
        <g id="BProtocol-|-Desktop-HP-Final" transform="translate(-51.000000, -23.000000)">
            <g id="Group-32" transform="translate(51.000000, 23.000000)">
                <g id="Group-3" transform="translate(0.000000, 7.994880)">
                    <mask id="mask-2" fill="white">
                        <use xlink:href="#path-1"></use>
                    </mask>
                    <g id="Clip-2"></g>
                    <path d="M0.741671967,9.89159956 L10.5010315,0.132239994 L16.3407113,5.97215973 C17.3295112,6.96095969 17.3295112,8.56415962 16.3407113,9.55319957 L6.58135171,19.3123191 L0.741671967,13.4726394 C-0.247367989,12.4838394 -0.247367989,10.8806395 0.741671967,9.89159956" id="Fill-1" fill="#12C264" mask="url(#mask-2)"></path>
                </g>
                <g id="Group-6" transform="translate(11.759999, 0.074880)">
                    <mask id="mask-4" fill="white">
                        <use xlink:href="#path-3"></use>
                    </mask>
                    <g id="Clip-5"></g>
                    <path d="M0.0466559979,6.7466157 L5.88657574,0.906695959 C6.87537569,-0.0821039963 8.47857562,-0.0821039963 9.46737558,0.906695959 L15.3070553,6.7466157 L9.46737558,12.5865354 C8.47857562,13.5753354 6.87537569,13.5753354 5.88657574,12.5865354 L0.0466559979,6.7466157 Z" id="Fill-4" fill="#12C264" mask="url(#mask-4)"></path>
                </g>
                <g id="Group-9" transform="translate(11.759999, 18.074879)">
                    <mask id="mask-6" fill="white">
                        <use xlink:href="#path-5"></use>
                    </mask>
                    <g id="Clip-8"></g>
                    <path d="M0.0466559979,6.6185517 L5.88657574,0.778871965 C6.87537569,-0.210167991 8.47857562,-0.210167991 9.46737558,0.778871965 L15.3070553,6.6185517 L9.46737558,12.4584714 C8.47857562,13.4472714 6.87537569,13.4472714 5.88657574,12.4584714 L0.0466559979,6.6185517 Z" id="Fill-7" fill="#12C264" mask="url(#mask-6)"></path>
                </g>
                <path d="M22.533047,13.9670154 L32.7280065,3.77205583 L38.5676863,9.61197557 C39.5564862,10.6007755 39.5564862,12.2039755 38.5676863,13.1930154 L28.3729667,23.387735 L22.533047,17.5480552 C21.544247,16.5590153 21.544247,14.9558153 22.533047,13.9670154" id="Fill-10" fill="#12C264"></path>
                <path d="M54.8041416,21.413351 L58.4204614,21.413351 C59.8345413,21.413351 60.8677413,20.4072711 60.8677413,19.1021511 C60.8677413,17.7970312 59.8345413,16.8723112 58.3933414,16.8723112 L54.8041416,16.8723112 L54.8041416,21.413351 Z M54.8041416,13.6366314 L57.5504614,13.6366314 C58.7468614,13.6366314 59.5897413,12.7937514 59.5897413,11.6244715 C59.5897413,10.5096715 58.7468614,9.66679157 57.5775814,9.66679157 L54.8041416,9.66679157 L54.8041416,13.6366314 Z M50.6982217,25.0296709 L50.6982217,6.07759173 L58.2301414,6.07759173 C59.7529413,6.07759173 61.0309413,6.53983171 62.0641412,7.46431167 C63.1244612,8.36167163 63.6411812,9.53071157 63.6411812,10.9176715 C63.6411812,12.7392714 62.7440612,14.1804714 61.2212613,14.7243113 C63.6411812,15.1591913 65.0281411,17.0083912 65.0281411,19.4283111 C65.0281411,21.0327111 64.4840611,22.392071 63.3692612,23.452631 C62.2815812,24.5131909 60.9222213,25.0296709 59.2635814,25.0296709 L50.6982217,25.0296709 Z" id="Fill-12" fill="#0B0412"></path>
                <path d="M69.3788609,13.3647834 C70.5752608,13.3647834 71.6087008,14.3708634 71.6087008,15.5672633 C71.6087008,16.7907832 70.5752608,17.7968632 69.3788609,17.7968632 C68.182461,17.7968632 67.149261,16.7907832 67.149261,15.5672633 C67.149261,14.3708634 68.182461,13.3647834 69.3788609,13.3647834" id="Fill-14" fill="#0B0412"></path>
                <path d="M78.8684845,15.1050233 L82.4305643,15.1050233 C83.0015243,15.1050233 83.5724843,14.9147033 84.0892042,14.5067034 C84.6059242,14.0989434 84.8778442,13.4192634 84.8778442,12.4947834 C84.8778442,11.5700635 84.6059242,10.9175035 84.0892042,10.5097435 C83.5724843,10.1017435 83.0015243,9.88430356 82.4305643,9.88430356 L78.8684845,9.88430356 L78.8684845,15.1050233 Z M74.6809647,25.0297429 L74.6809647,6.07742373 L82.6751243,6.07742373 C84.2795242,6.07742373 85.7207242,6.6757437 87.0529641,7.84502365 C88.385444,9.0143036 89.065124,10.5639835 89.065124,12.4947834 C89.065124,14.3437434 88.412564,15.8663033 87.1074441,17.0898232 C85.8023242,18.3135832 84.3337642,18.9116632 82.6751243,18.9116632 L78.8684845,18.9116632 L78.8684845,25.0297429 L74.6809647,25.0297429 Z" id="Fill-16" fill="#0B0412"></path>
                <path d="M91.2135799,25.0297429 L91.2135799,11.3252635 L95.2650197,11.3252635 L95.2650197,13.2015834 C95.8904597,11.8148635 97.3587796,11.0262235 99.2348596,11.0262235 C99.5067796,11.0262235 99.8602995,11.0535835 100.29542,11.1078235 L100.29542,14.9147033 C99.8874195,14.8331033 99.4251796,14.7786233 98.9358196,14.7786233 C96.6243797,14.7786233 95.2650197,16.0839833 95.2650197,18.3407032 L95.2650197,25.0297429 L91.2135799,25.0297429 Z" id="Fill-18" fill="#0B0412"></path>
                <path d="M106.141747,20.7336471 C106.821667,21.413327 107.664547,21.766847 108.670627,21.766847 C109.676707,21.766847 110.519587,21.413327 111.199267,20.7336471 C111.879187,20.0266071 112.232707,19.1837271 112.232707,18.1776472 C112.232707,17.1713272 111.879187,16.3286873 111.199267,15.6487673 C110.519587,14.9417273 109.676707,14.5884473 108.670627,14.5884473 C107.664547,14.5884473 106.821667,14.9417273 106.141747,15.6487673 C105.462067,16.3286873 105.108547,17.1713272 105.108547,18.1776472 C105.108547,19.1837271 105.462067,20.0537271 106.141747,20.7336471 M114.054547,13.0385274 C115.549987,14.4252474 116.284147,16.1383673 116.284147,18.1776472 C116.284147,20.2169271 115.549987,21.929807 114.054547,23.343887 C112.558867,24.7306069 110.764387,25.4376469 108.670627,25.4376469 C106.549747,25.4376469 104.755267,24.7306069 103.259587,23.343887 C101.791267,21.929807 101.056867,20.2169271 101.056867,18.1776472 C101.056867,16.1383673 101.791267,14.4252474 103.259587,13.0385274 C104.755267,11.6244475 106.549747,10.9176475 108.670627,10.9176475 C110.764387,10.9176475 112.558867,11.6244475 114.054547,13.0385274" id="Fill-20" fill="#0B0412"></path>
                <polygon id="Fill-22" fill="#0B0412" points="119.302843 25.0297429 119.302843 14.9960633 117.481003 14.9960633 117.481003 11.3252635 119.302843 11.3252635 119.302843 6.07742373 123.245802 6.07742373 123.245802 11.3252635 126.263802 11.3252635 126.263802 14.9960633 123.245802 14.9960633 123.245802 25.0297429"></polygon>
                <path d="M131.974098,20.7336471 C132.654018,21.413327 133.496898,21.766847 134.502978,21.766847 C135.509058,21.766847 136.351938,21.413327 137.031618,20.7336471 C137.711538,20.0266071 138.065058,19.1837271 138.065058,18.1776472 C138.065058,17.1713272 137.711538,16.3286873 137.031618,15.6487673 C136.351938,14.9417273 135.509058,14.5884473 134.502978,14.5884473 C133.496898,14.5884473 132.654018,14.9417273 131.974098,15.6487673 C131.294418,16.3286873 130.940898,17.1713272 130.940898,18.1776472 C130.940898,19.1837271 131.294418,20.0537271 131.974098,20.7336471 M139.886898,13.0385274 C141.382338,14.4252474 142.116498,16.1383673 142.116498,18.1776472 C142.116498,20.2169271 141.382338,21.929807 139.886898,23.343887 C138.391218,24.7306069 136.596738,25.4376469 134.502978,25.4376469 C132.382098,25.4376469 130.587618,24.7306069 129.091938,23.343887 C127.623618,21.929807 126.889218,20.2169271 126.889218,18.1776472 C126.889218,16.1383673 127.623618,14.4252474 129.091938,13.0385274 C130.587618,11.6244475 132.382098,10.9176475 134.502978,10.9176475 C136.596738,10.9176475 138.391218,11.6244475 139.886898,13.0385274" id="Fill-24" fill="#0B0412"></path>
                <path d="M155.521985,12.1411195 L155.521985,16.0567193 C154.461665,15.0506393 153.129185,14.5610393 151.579265,14.5610393 C150.464465,14.5610393 149.512865,14.8874393 148.778465,15.5673593 C148.044545,16.2470393 147.691025,17.0899192 147.691025,18.1504792 C147.691025,20.2168791 149.322545,21.712319 151.579265,21.712319 C153.156545,21.712319 154.461665,21.2229591 155.521985,20.2439991 L155.521985,24.1322389 C154.434545,24.9753589 153.020465,25.3831189 151.253105,25.3831189 C149.050625,25.3831189 147.228545,24.7034389 145.787585,23.343839 C144.346626,21.957119 143.639346,20.2439991 143.639346,18.1504792 C143.639346,16.0567193 144.346626,14.3435994 145.787585,12.9568794 C147.228545,11.5701595 149.050625,10.8904795 151.253105,10.8904795 C152.966225,10.8904795 154.407185,11.2982395 155.521985,12.1411195" id="Fill-26" fill="#0B0412"></path>
                <path d="M162.374633,20.7336471 C163.054553,21.413327 163.897433,21.766847 164.903513,21.766847 C165.909593,21.766847 166.752473,21.413327 167.432153,20.7336471 C168.112072,20.0266071 168.465592,19.1837271 168.465592,18.1776472 C168.465592,17.1713272 168.112072,16.3286873 167.432153,15.6487673 C166.752473,14.9417273 165.909593,14.5884473 164.903513,14.5884473 C163.897433,14.5884473 163.054553,14.9417273 162.374633,15.6487673 C161.694953,16.3286873 161.341433,17.1713272 161.341433,18.1776472 C161.341433,19.1837271 161.694953,20.0537271 162.374633,20.7336471 M170.287432,13.0385274 C171.782872,14.4252474 172.517032,16.1383673 172.517032,18.1776472 C172.517032,20.2169271 171.782872,21.929807 170.287432,23.343887 C168.791752,24.7306069 166.997273,25.4376469 164.903513,25.4376469 C162.782633,25.4376469 160.988153,24.7306069 159.492473,23.343887 C158.024153,21.929807 157.289753,20.2169271 157.289753,18.1776472 C157.289753,16.1383673 158.024153,14.4252474 159.492473,13.0385274 C160.988153,11.6244475 162.782633,10.9176475 164.903513,10.9176475 C166.997273,10.9176475 168.791752,11.6244475 170.287432,13.0385274" id="Fill-28" fill="#0B0412"></path>
                <mask id="mask-8" fill="white">
                    <use xlink:href="#path-7"></use>
                </mask>
                <g id="Clip-31"></g>
                <polygon id="Fill-30" fill="#0B0412" mask="url(#mask-8)" points="174.638392 25.0298389 178.689832 25.0298389 178.689832 6.07751973 174.638392 6.07751973"></polygon>
            </g>
        </g>
    </g>
</svg>