<svg width="44" height="44" viewBox="0 0 44 44" fill="none" xmlns="http://www.w3.org/2000/svg">
    <path d="M30.0201 8C28.4165 7.99876 26.8778 8.63387 25.742 9.76592C24.6061 10.898 23.9659 12.4345 23.9617 14.0381V20.7329C23.3378 20.775 22.6998 20.8015 22.0385 20.8015C21.3771 20.8015 20.7422 20.828 20.1152 20.8655V14.0381C20.0897 12.4484 19.4403 10.9324 18.307 9.81716C17.1738 8.70195 15.6475 8.07693 14.0576 8.07693C12.4677 8.07693 10.9414 8.70195 9.80818 9.81716C8.67494 10.9324 8.02551 12.4484 8 14.0381V30.0388C8.02551 31.6286 8.67494 33.1446 9.80818 34.2598C10.9414 35.375 12.4677 36 14.0576 36C15.6475 36 17.1738 35.375 18.307 34.2598C19.4403 33.1446 20.0897 31.6286 20.1152 30.0388V23.344C20.7391 23.3019 21.3771 23.2754 22.0385 23.2754C22.6998 23.2754 23.3347 23.2489 23.9617 23.2115V30.0388C23.9872 31.6286 24.6367 33.1446 25.7699 34.2598C26.9032 35.375 28.4294 36 30.0193 36C31.6093 36 33.1355 35.375 34.2687 34.2598C35.402 33.1446 36.0514 31.6286 36.0769 30.0388V14.0381C36.0728 12.4347 35.4327 10.8985 34.2972 9.76647C33.1617 8.63446 31.6235 7.99917 30.0201 8ZM14.0568 10.4739C15.0032 10.4735 15.9112 10.8485 16.5814 11.5167C17.2517 12.1849 17.6295 13.0917 17.6319 14.0381V21.1275C15.8596 21.3843 14.1289 21.8737 12.4845 22.5828C11.772 22.8955 11.1013 23.2959 10.4879 23.7746V14.0381C10.4904 13.0928 10.8674 12.1869 11.5362 11.5189C12.2051 10.8509 13.1115 10.4751 14.0568 10.4739ZM17.6319 30.0388C17.6319 30.987 17.2553 31.8964 16.5848 32.5668C15.9143 33.2373 15.005 33.614 14.0568 33.614C13.1086 33.614 12.1993 33.2373 11.5288 32.5668C10.8584 31.8964 10.4817 30.987 10.4817 30.0388V28.4338C10.4817 27.0159 11.6048 25.6729 13.4875 24.8368C14.8141 24.2645 16.206 23.8574 17.6319 23.6248V30.0388ZM30.0201 33.603C29.0737 33.6035 28.1658 33.2284 27.4955 32.5602C26.8253 31.892 26.4475 30.9852 26.445 30.0388V22.9494C28.2173 22.6926 29.948 22.2033 31.5924 21.4941C32.3049 21.1814 32.9756 20.7811 33.589 20.3024V30.0388C33.5865 30.9842 33.2096 31.89 32.5407 32.558C31.8718 33.226 30.9654 33.6018 30.0201 33.603ZM30.5894 19.2308C29.2629 19.8031 27.8709 20.2102 26.445 20.4428V14.0381C26.445 13.0899 26.8216 12.1806 27.4921 11.5101C28.1626 10.8396 29.0719 10.463 30.0201 10.463C30.9683 10.463 31.8776 10.8396 32.5481 11.5101C33.2186 12.1806 33.5952 13.0899 33.5952 14.0381V15.6432C33.5952 17.0548 32.4722 18.3978 30.5894 19.2308Z" fill="url(#paint0_linear_210_3)"/>
    <defs>
        <linearGradient id="paint0_linear_210_3" x1="9.7782" y1="33.9139" x2="34.1385" y2="9.48707" gradientUnits="userSpaceOnUse">
            <stop stop-color="#00AEE9"/>
            <stop offset="1" stop-color="#69FABD"/>
        </linearGradient>
    </defs>
</svg>
