<svg xmlns="http://www.w3.org/2000/svg" xmlns:xlink="http://www.w3.org/1999/xlink" viewBox="0 0 361 361"><defs><style>.cls-1{fill:url(#linear-gradient);}.cls-2{fill:url(#linear-gradient-2);}.cls-3{fill:url(#linear-gradient-3);}.cls-4{fill:#fff;}.cls-5{opacity:0.17;fill:url(#linear-gradient-4);}</style><linearGradient id="linear-gradient" y1="180.5" x2="361" y2="180.5" gradientUnits="userSpaceOnUse"><stop offset="0" stop-color="#99ebff"/><stop offset="0.41" stop-color="#00ceff"/><stop offset="1" stop-color="#09a6e3"/></linearGradient><linearGradient id="linear-gradient-2" x1="68.16" y1="82.8" x2="319.43" y2="301.32" gradientUnits="userSpaceOnUse"><stop offset="0" stop-color="#015cb1"/><stop offset="0.52" stop-color="#09a6e3"/><stop offset="1" stop-color="#00ceff"/></linearGradient><linearGradient id="linear-gradient-3" x1="49.72" y1="84.9" x2="295.97" y2="264.9" gradientUnits="userSpaceOnUse"><stop offset="0.04" stop-color="#92eaff"/><stop offset="0.12" stop-color="#82e2fc"/><stop offset="0.28" stop-color="#57cdf3"/><stop offset="0.5" stop-color="#13abe5"/><stop offset="0.53" stop-color="#09a6e3"/><stop offset="1" stop-color="#069bef"/></linearGradient><linearGradient id="linear-gradient-4" x1="132.14" y1="-20.44" x2="412.6" y2="355.39" gradientUnits="userSpaceOnUse"><stop offset="0" stop-color="#fff"/><stop offset="0.41" stop-color="#83e2fc"/><stop offset="1" stop-color="#069bef"/></linearGradient></defs><title>HND Logo</title><g id="Layer_2" data-name="Layer 2"><g id="Layer_2-2" data-name="Layer 2"><path class="cls-1" d="M361,180.5A180.5,180.5,0,1,1,180.5,0,179.66,179.66,0,0,1,361,180.5Z"/><circle class="cls-2" cx="180.5" cy="180.5" r="166.5"/><circle class="cls-3" cx="180.5" cy="180.5" r="152.5"/><g id="Logo"><g id="Backup_2" data-name="Backup 2"><path class="cls-4" d="M219.61,180.12a10.4,10.4,0,0,1-4.84,8.79,10.75,10.75,0,0,1-2.8,1.27,10.89,10.89,0,0,1-3,.41,10.69,10.69,0,0,1-8.81-4.61h0l-.62-1.37-.84-1.79L195.07,175a13.94,13.94,0,0,0-12-7.48H129.74a3,3,0,0,0-.67.07l-.1,0c-.3.08-.77.2-1.34.41h0l-.24.09h0l0,0a14.5,14.5,0,0,0-2,1,14.75,14.75,0,0,0-1.76,1.16l0,0a15.78,15.78,0,0,0-3.15,3.21c-.15.17-.29.33-.42.5a34.58,34.58,0,0,0-7.47,19.81c0,15.53,13.37,29.33,28.85,31.77h-6.49a40,40,0,0,1-39.06-32.15,67.68,67.68,0,0,1-.74-7.83v-.44c.11-2.28,1.23-16.33,11.5-27.31l.05,0,.14-.15A39.7,39.7,0,0,1,134.79,146h51.14a35.15,35.15,0,0,1,13.6,4.28,30.44,30.44,0,0,1,6.62,5c4.44,4.44,8.57,12.25,11.54,18.82.62,1.38,1.2,2.71,1.71,3.93h0A10.19,10.19,0,0,1,219.61,180.12Z"/><path class="cls-4" d="M165.15,214.84a10.78,10.78,0,0,1-9.71,10.72c-.35,0-.71.05-1.07.05H141.28c-15.48-2.44-28.85-16.24-28.85-31.77A34.58,34.58,0,0,1,119.9,174c.13-.17.27-.33.42-.5a14.06,14.06,0,0,0-1,1.59l-.06.09a22,22,0,0,0-2.62,9.2v.05c0,.34,0,.69-.07,1-.59,13.76,9.6,17.91,11.87,18.46a3.14,3.14,0,0,0,.75.09h25.22a10.78,10.78,0,0,1,10.78,10.78Z"/><path class="cls-4" d="M165.15,214.84a10.78,10.78,0,0,1-9.71,10.72c-.35,0-.71.05-1.07.05H141.28c-17.37-.77-28.85-16.24-28.85-31.77A31.64,31.64,0,0,1,119.9,174c.13-.17.27-.33.42-.5a14.06,14.06,0,0,0-1,1.59l-.06.09a22,22,0,0,0-2.62,9.2v.05c0,.34,0,.69-.07,1-.59,13.76,9.6,17.91,11.87,18.46a3.14,3.14,0,0,0,.75.09h25.22a10.78,10.78,0,0,1,10.78,10.78Z"/></g><g id="Backup_2-2" data-name="Backup 2"><path class="cls-4" d="M168.45,191.53a10.41,10.41,0,0,1,4.85-8.79,10.21,10.21,0,0,1,2.79-1.26,10.84,10.84,0,0,1,3-.42,10.64,10.64,0,0,1,8.79,4.61h0l.61,1.37.84,1.79,3.65,7.78a13.94,13.94,0,0,0,12,7.47h53.31a3,3,0,0,0,.67-.07l.1,0c.3-.08.76-.2,1.33-.41h0a1.35,1.35,0,0,1,.24-.08h.07a15.81,15.81,0,0,0,2-1,16.86,16.86,0,0,0,1.75-1.15l0,0a15.71,15.71,0,0,0,3.15-3.2l.42-.5a34.59,34.59,0,0,0,7.46-19.8c0-15.51-13.36-29.3-28.82-31.73h6.48a39.91,39.91,0,0,1,39,32.11A65.54,65.54,0,0,1,293,186a.25.25,0,0,1,0,.08v.18s0,.05,0,.08v.1c-.11,2.27-1.22,16.32-11.49,27.28l0,0-.14.15a39.64,39.64,0,0,1-28.09,11.68H202.11a35.08,35.08,0,0,1-13.59-4.28,30.38,30.38,0,0,1-6.62-5c-4.43-4.43-8.56-12.24-11.53-18.81-.62-1.37-1.19-2.7-1.71-3.92h0A10.09,10.09,0,0,1,168.45,191.53Z"/><path class="cls-4" d="M222.87,156.84a10.76,10.76,0,0,1,9.69-10.71c.36,0,.71,0,1.07,0h13.08c15.46,2.43,28.82,16.22,28.82,31.73a34.59,34.59,0,0,1-7.46,19.8l-.42.5a15.58,15.58,0,0,0,1-1.59l.06-.1a21.74,21.74,0,0,0,2.61-9.18.11.11,0,0,0,0-.05q0-.51.06-1.05c.6-13.75-9.58-17.9-11.85-18.44a3.22,3.22,0,0,0-.75-.1h-25.2a10.75,10.75,0,0,1-10.76-10.76Z"/><path class="cls-4" d="M222.87,156.84a10.76,10.76,0,0,1,9.69-10.71c.36,0,.71,0,1.07,0h13.08c17.35.76,28.82,16.22,28.82,31.73a31.66,31.66,0,0,1-7.46,19.8l-.42.5a15.58,15.58,0,0,0,1-1.59l.06-.1a21.74,21.74,0,0,0,2.61-9.18.11.11,0,0,0,0-.05q0-.51.06-1.05c.6-13.75-9.58-17.9-11.85-18.44a3.22,3.22,0,0,0-.75-.1h-25.2a10.75,10.75,0,0,1-10.76-10.76Z"/></g><rect class="cls-4" x="33.9" y="175.03" width="79.61" height="21.55" rx="9.98" transform="translate(-112.1 259.51) rotate(-90)"/></g><path class="cls-5" d="M361,180.5A179.66,179.66,0,0,1,320,295H305.5l-14-4L74.5,68V51l-9-9c.07-.27.15-.54.24-.82A180.5,180.5,0,0,1,361,180.5Z"/></g></g></svg>