<svg xmlns="http://www.w3.org/2000/svg" xmlns:xlink="http://www.w3.org/1999/xlink" viewBox="0 0 1508.65 1121.36"><defs><style>.cls-1{fill:url(#linear-gradient);}.cls-2{fill:url(#linear-gradient-2);}.cls-3{fill:url(#linear-gradient-3);}.cls-4{fill:url(#linear-gradient-4);}.cls-5{fill:url(#linear-gradient-5);}.cls-6{fill:#015cb1;}.cls-7{fill:url(#linear-gradient-6);}.cls-8{fill:url(#linear-gradient-7);}.cls-9{fill:url(#linear-gradient-8);}.cls-10{fill:#00ceff;}.cls-11{fill:url(#linear-gradient-9);}.cls-12{fill:url(#linear-gradient-10);}.cls-13{fill:url(#linear-gradient-11);}.cls-14{fill:url(#linear-gradient-12);}.cls-15{fill:url(#linear-gradient-13);}.cls-16{fill:url(#linear-gradient-14);}.cls-17{fill:url(#linear-gradient-15);}.cls-18{fill:url(#linear-gradient-16);}.cls-19{fill:url(#linear-gradient-17);}.cls-20{fill:url(#linear-gradient-18);}.cls-21{fill:url(#linear-gradient-19);}.cls-22{fill:url(#linear-gradient-20);}.cls-23{fill:url(#linear-gradient-21);}.cls-24{fill:url(#linear-gradient-22);}.cls-25{fill:url(#linear-gradient-23);}.cls-26{fill:url(#linear-gradient-24);}.cls-27{isolation:isolate;}.cls-28{fill:url(#linear-gradient-25);}.cls-29{fill:url(#linear-gradient-26);}.cls-30{fill:url(#linear-gradient-27);}</style><linearGradient id="linear-gradient" x1="22.27" y1="483.12" x2="285.98" y2="483.12" gradientUnits="userSpaceOnUse"><stop offset="0" stop-color="#00ceff"/><stop offset="0.32" stop-color="#02c0fb"/><stop offset="0.93" stop-color="#069df0"/><stop offset="0.95" stop-color="#069bef"/></linearGradient><linearGradient id="linear-gradient-2" x1="57.59" y1="596.95" x2="206.19" y2="528.69" gradientUnits="userSpaceOnUse"><stop offset="0.48" stop-color="#00ceff"/><stop offset="0.66" stop-color="#03b6f8"/><stop offset="0.86" stop-color="#05a2f1"/><stop offset="1" stop-color="#069bef"/></linearGradient><linearGradient id="linear-gradient-3" x1="133.87" y1="568.08" x2="376.22" y2="686.78" gradientUnits="userSpaceOnUse"><stop offset="0" stop-color="#09a6e3"/><stop offset="1" stop-color="#015cb1"/></linearGradient><linearGradient id="linear-gradient-4" x1="395.09" y1="420.46" x2="641.72" y2="551.12" gradientUnits="userSpaceOnUse"><stop offset="0.34" stop-color="#00ceff"/><stop offset="0.53" stop-color="#02c0fb"/><stop offset="0.88" stop-color="#069df0"/><stop offset="0.89" stop-color="#069bef"/></linearGradient><linearGradient id="linear-gradient-5" x1="463.07" y1="579.67" x2="440.98" y2="717.61" gradientUnits="userSpaceOnUse"><stop offset="0.1" stop-color="#00ceff"/><stop offset="0.37" stop-color="#02c0fb"/><stop offset="0.87" stop-color="#069df0"/><stop offset="0.89" stop-color="#069bef"/></linearGradient><linearGradient id="linear-gradient-6" x1="831.52" y1="502.39" x2="1098.73" y2="502.39" gradientUnits="userSpaceOnUse"><stop offset="0.05" stop-color="#00ceff"/><stop offset="0.37" stop-color="#02c0fb"/><stop offset="0.98" stop-color="#069df0"/><stop offset="1" stop-color="#069bef"/></linearGradient><linearGradient id="linear-gradient-7" x1="839.13" y1="560" x2="928.26" y2="722.95" xlink:href="#linear-gradient-4"/><linearGradient id="linear-gradient-8" x1="1273.85" y1="522.98" x2="1508.65" y2="522.98" xlink:href="#linear-gradient-3"/><linearGradient id="linear-gradient-9" x1="0" y1="874.3" x2="228.66" y2="874.3" xlink:href="#linear-gradient"/><linearGradient id="linear-gradient-10" x1="32.26" y1="1049.45" x2="256.19" y2="951.47" gradientUnits="userSpaceOnUse"><stop offset="0.59" stop-color="#00ceff"/><stop offset="0.71" stop-color="#02c0fb"/><stop offset="0.94" stop-color="#069df0"/><stop offset="0.95" stop-color="#069bef"/></linearGradient><linearGradient id="linear-gradient-11" x1="375.85" y1="850.39" x2="660.58" y2="850.39" gradientUnits="userSpaceOnUse"><stop offset="0" stop-color="#09a6e3"/><stop offset="0.2" stop-color="#08a0df"/><stop offset="0.47" stop-color="#078fd4"/><stop offset="0.78" stop-color="#0474c1"/><stop offset="1" stop-color="#015cb1"/></linearGradient><linearGradient id="linear-gradient-12" x1="467.78" y1="939.8" x2="675.35" y2="973.35" xlink:href="#linear-gradient-11"/><linearGradient id="linear-gradient-13" x1="404.29" y1="968.04" x2="517.31" y2="968.04" gradientUnits="userSpaceOnUse"><stop offset="0.27" stop-color="#00ceff"/><stop offset="0.5" stop-color="#02c0fb"/><stop offset="0.93" stop-color="#069df0"/><stop offset="0.95" stop-color="#069bef"/></linearGradient><linearGradient id="linear-gradient-14" x1="905.02" y1="912.23" x2="1103.9" y2="866.24" gradientUnits="userSpaceOnUse"><stop offset="0.05" stop-color="#00ceff"/><stop offset="0.64" stop-color="#04b0f5"/><stop offset="1" stop-color="#069bef"/></linearGradient><linearGradient id="linear-gradient-15" x1="773.85" y1="935.07" x2="899.65" y2="918.11" gradientUnits="userSpaceOnUse"><stop offset="0" stop-color="#00ceff"/><stop offset="0.32" stop-color="#00cbfe"/><stop offset="0.57" stop-color="#02c1fb"/><stop offset="0.8" stop-color="#03b1f6"/><stop offset="1" stop-color="#069bef"/></linearGradient><linearGradient id="linear-gradient-16" x1="1246.84" y1="914.6" x2="1443.96" y2="914.6" xlink:href="#linear-gradient"/><linearGradient id="linear-gradient-17" x1="1175.73" y1="1052.14" x2="1471.85" y2="1052.14" xlink:href="#linear-gradient-3"/><linearGradient id="linear-gradient-18" x1="809.85" y1="75.25" x2="1066.4" y2="68.78" gradientUnits="userSpaceOnUse"><stop offset="0" stop-color="#00ceff"/><stop offset="0.3" stop-color="#02c0fb"/><stop offset="0.87" stop-color="#069df0"/><stop offset="0.89" stop-color="#069bef"/></linearGradient><linearGradient id="linear-gradient-19" x1="945.35" y1="151.91" x2="1135" y2="151.91" xlink:href="#linear-gradient-3"/><linearGradient id="linear-gradient-20" x1="809.77" y1="199.93" x2="1013.94" y2="199.93" xlink:href="#linear-gradient-10"/><linearGradient id="linear-gradient-21" x1="1178.37" y1="79.01" x2="1343.61" y2="139.78" gradientUnits="userSpaceOnUse"><stop offset="0.43" stop-color="#00ceff"/><stop offset="0.62" stop-color="#02c0fb"/><stop offset="0.99" stop-color="#069df0"/><stop offset="1" stop-color="#069bef"/></linearGradient><linearGradient id="linear-gradient-22" x1="1264.65" y1="258.28" x2="1497.75" y2="165" gradientUnits="userSpaceOnUse"><stop offset="0.21" stop-color="#00ceff"/><stop offset="0.46" stop-color="#02c0fb"/><stop offset="0.93" stop-color="#069df0"/><stop offset="0.95" stop-color="#069bef"/></linearGradient><linearGradient id="linear-gradient-23" x1="86.21" y1="214.04" x2="46.01" y2="350.29" xlink:href="#linear-gradient-4"/><linearGradient id="linear-gradient-24" x1="-43.37" y1="22.13" x2="210.68" y2="149.31" xlink:href="#linear-gradient-4"/><linearGradient id="linear-gradient-25" x1="1289.21" y1="2068.99" x2="1181.45" y2="2209.09" gradientTransform="matrix(0.24, -0.97, 0.97, 0.24, -1861.13, 913.88)" xlink:href="#linear-gradient-4"/><linearGradient id="linear-gradient-26" x1="703.85" y1="2202.55" x2="739.69" y2="2107.83" gradientTransform="translate(2575.08 348.97) rotate(119.34)" xlink:href="#linear-gradient-3"/><linearGradient id="linear-gradient-27" x1="472.34" y1="116.38" x2="719.34" y2="116.38" gradientUnits="userSpaceOnUse"><stop offset="0.05" stop-color="#00ceff"/><stop offset="0.24" stop-color="#02c0fb"/><stop offset="0.6" stop-color="#069df0"/><stop offset="0.62" stop-color="#069bef"/></linearGradient></defs><title>Cubes_1</title><g id="Layer_2" data-name="Layer 2"><g id="Layer_1-2" data-name="Layer 1"><g id="Cube_1" data-name="Cube 1"><polygon class="cls-1" points="27.16 469.54 203.26 445.88 290.87 494.94 118.27 520.35 27.16 469.54"/><polygon class="cls-2" points="27.16 663.15 27.16 469.54 118.27 520.35 118.27 710.46 27.16 663.15"/><polygon class="cls-3" points="118.27 710.46 118.27 520.35 290.87 494.94 290.87 682.43 118.27 710.46"/></g><g id="Cube_2" data-name="Cube 2"><polygon class="cls-4" points="527.41 409.08 388.49 490 527.41 572.04 667.59 490.56 527.41 409.08"/><polygon class="cls-5" points="388.11 651.77 388.49 490 527.41 572.04 527.41 733.24 388.11 651.77"/><polygon class="cls-6" points="667.59 490.56 667.59 651.77 527.41 733.24 527.41 572.04 667.59 490.56"/></g><g id="Cube_3" data-name="Cube 3"><polygon class="cls-7" points="961.96 392.44 824.41 473.92 953.2 612.34 1091.62 532.62 961.96 392.44"/><polygon class="cls-8" points="767.47 585.18 824.41 473.92 953.2 612.34 895.38 724.48 767.47 585.18"/><polygon class="cls-6" points="1091.62 532.62 1032.92 644.76 895.38 724.48 953.2 612.34 1091.62 532.62"/></g><g id="Cube_4" data-name="Cube 4"><polygon class="cls-9" points="1411.4 398.57 1273.85 479.17 1371.97 647.38 1508.65 567.66 1411.4 398.57"/><polygon class="cls-10" points="1177.48 536.12 1273.85 479.17 1371.97 647.38 1273.85 704.33 1177.48 536.12"/></g><g id="Cube_5" data-name="Cube 5"><polygon class="cls-11" points="0 924.23 209.39 893.57 228.66 824.36 18.4 853.27 0 924.23"/><polygon class="cls-6" points="244.43 1095.95 265.46 1028.49 228.66 824.36 209.39 893.57 244.43 1095.95"/><polygon class="cls-12" points="0 924.23 37.67 1121.36 244.43 1095.95 209.39 893.57 0 924.23"/></g><g id="Cube_6" data-name="Cube 6"><polygon class="cls-13" points="375.85 859.4 470.36 869.4 660.58 837.5 562.46 831.37 375.85 859.4"/><polygon class="cls-14" points="488.87 1076.67 469.59 863.78 660.58 837.5 679.86 1039.88 488.87 1076.67"/><polygon class="cls-15" points="375.85 859.4 394.25 1067.04 488.87 1076.67 469.59 863.78 375.85 859.4"/></g><g id="Cube_7" data-name="Cube 7"><polygon class="cls-16" points="1074.1 813.84 870.85 784.93 869.97 980.3 1074.1 1008.34 1074.1 813.84"/><polygon class="cls-6" points="1011.02 1093.32 1074.1 1008.34 869.97 980.3 805.14 1067.91 1011.02 1093.32"/><polygon class="cls-17" points="870.85 784.93 805.14 876.05 805.14 1067.91 869.97 980.3 870.85 784.93"/></g><g id="Cube_8" data-name="Cube 8"><polygon class="cls-18" points="1204.64 835.75 1372.85 802.46 1343.06 1002.21 1175.73 1026.74 1204.64 835.75"/><polygon class="cls-6" points="1504.27 879.55 1372.85 802.46 1343.06 1002.21 1471.85 1076.67 1504.27 879.55"/><polygon class="cls-19" points="1175.73 1026.74 1343.06 1002.21 1471.85 1076.67 1307.14 1102.08 1175.73 1026.74"/></g><g id="Cube_9" data-name="Cube 9"><polygon class="cls-20" points="945.35 100.67 1066.4 24 928.4 40.14 809.77 120.04 945.35 100.67"/><polygon class="cls-21" points="1013.94 279.83 945.35 100.67 1066.4 24 1135 201.54 1013.94 279.83"/><polygon class="cls-22" points="809.77 120.04 945.35 100.67 1013.94 279.83 876.75 299.19 809.77 120.04"/></g><polygon class="cls-6" points="1323 0 1373.52 109.46 1498.29 191.37 1451.6 84.97 1323 0"/><polygon class="cls-23" points="1197.46 127.07 1323 0 1373.52 109.46 1247.22 236.53 1197.46 127.07"/><polygon class="cls-24" points="1498.29 191.37 1373.52 319.96 1247.22 236.53 1373.52 109.46 1498.29 191.37"/><polyline class="cls-6" points="291.32 118.02 291.32 282.05 149.27 364.06 149.27 200.03 291.32 118.02"/><polyline class="cls-25" points="7.21 118.02 7.21 282.05 149.27 364.06 149.27 200.03 7.21 118.02"/><path class="cls-26" d="M290.23,118,148.17,36,6.11,118l142.06,82Z"/><g class="cls-27"><polygon class="cls-28" points="610.62 200.8 520.3 346.29 382.01 218.69 472.33 73.2 610.62 200.8"/><polygon class="cls-29" points="610.62 200.8 719.34 159.56 629.02 305.05 520.3 346.29 610.62 200.8"/><polygon class="cls-30" points="472.33 73.2 581.05 31.96 719.34 159.56 610.62 200.8 472.33 73.2"/></g></g></g></svg>