<?xml version="1.0" encoding="UTF-8" standalone="no"?>
<svg
   xmlns:dc="http://purl.org/dc/elements/1.1/"
   xmlns:cc="http://creativecommons.org/ns#"
   xmlns:rdf="http://www.w3.org/1999/02/22-rdf-syntax-ns#"
   xmlns:svg="http://www.w3.org/2000/svg"
   xmlns="http://www.w3.org/2000/svg"
   xmlns:sodipodi="http://sodipodi.sourceforge.net/DTD/sodipodi-0.dtd"
   xmlns:inkscape="http://www.inkscape.org/namespaces/inkscape"
   width="133.80357mm"
   height="133.80357mm"
   viewBox="0 0 133.80357 133.80357"
   inkscape:version="1.0.1 (c497b03c, 2020-09-10)"
   sodipodi:docname="hundred.svg">
  <defs />
  <sodipodi:namedview
     inkscape:zoom="0.35"
     inkscape:cx="256.00675"
     inkscape:cy="251.59729"
     inkscape:window-width="1252"
     inkscape:window-height="798"
     inkscape:window-x="0"
     inkscape:window-y="25"
     inkscape:window-maximized="0" />
  <g
     transform="translate(-38.098215,-81.598216)">
    <path
       style="fill:none;stroke:#000000;stroke-width:5.29167;stroke-linecap:round;stroke-linejoin:round;stroke-miterlimit:4;stroke-dasharray:none"
       d="M 169.25595,148.5 A 64.255951,64.255951 0 0 1 105,212.75595 64.255951,64.255951 0 0 1 40.74405,148.5 64.255951,64.255951 0 0 1 105,84.244051 64.255951,64.255951 0 0 1 169.25595,148.5 Z" />
    <path
       style="fill:none;stroke:#000000;stroke-width:5.29167;stroke-linecap:round;stroke-linejoin:round;stroke-miterlimit:4;stroke-dasharray:none"
       d="m 157.16072,163.61905 a 40.82143,40.82143 0 0 1 -40.82143,40.82143 40.82143,40.82143 0 0 1 -40.821432,-40.82143 40.82143,40.82143 0 0 1 40.821432,-40.82143 40.82143,40.82143 0 0 1 40.82143,40.82143 z" />
    <path
       style="fill:none;stroke:#000000;stroke-width:5.29167;stroke-linecap:round;stroke-linejoin:round;stroke-miterlimit:4;stroke-dasharray:none"
       d="M 133.72619,154.54762 A 25.702381,25.702381 0 0 1 108.0238,180.25 25.702381,25.702381 0 0 1 82.321426,154.54762 25.702381,25.702381 0 0 1 108.0238,128.84524 a 25.702381,25.702381 0 0 1 25.70239,25.70238 z" />
  </g>
  <metadata
     id="metadata893">
    <rdf:RDF>
      <cc:Work
         rdf:about="">
        <dc:title></dc:title>
      </cc:Work>
    </rdf:RDF>
  </metadata>
</svg>
