<svg width="200px" height="200px" data-name="Layer 3" version="1.1" viewBox="0 0 1e3 1e3" xmlns="http://www.w3.org/2000/svg">
 <g transform="matrix(.99604 0 0 1.0003 1.9814 -.1455)" stroke-width="1.0018">
  <path d="m989.47 500a489.47 487.36 0 0 1-489.3 487.36 489.47 487.36 0 0 1-489.63-487.03 489.47 487.36 0 0 1 488.97-487.69 489.47 487.36 0 0 1 489.97 486.7" fill="#fff" stroke="#212121" stroke-linecap="round" stroke-linejoin="round" stroke-width="25.046"/>
  <g transform="matrix(.90334 0 0 .91716 54.627 102.65)">
   <line x1="45.85" x2="45.85" y1="239.67" y2="626.81" fill="none" stroke="#212121" stroke-linecap="round" stroke-width="27.868px" className="cls-1"/>
   <path d="m368.77 238c105.71 0 155.94 55.88 179.47 102.75 25 49.86 25.31 99.17 25.31 101.25 0 0.41 0.41 45.48 22.69 89.44 29 57.19 80.44 86.19 153 86.19 96.94 0 175.8-78.87 175.8-175.8q0-2.21-0.06-4.41c-2.35 94.9-80.28 171.39-175.74 171.39-72.51 0-124-29-153-86.19-22.28-44-22.69-89-22.69-89.45 0-2.07-0.28-51.38-25.31-101.24-23.53-46.87-73.76-102.75-179.47-102.75-54.42 0-105.81 21.42-144.7 60.32s-60.32 90.28-60.32 144.7c0 1.47 0 2.94 0.06 4.41 1.12-52.78 22.42-102.45 60.26-140.29 38.93-38.86 90.28-60.32 144.7-60.32z" fill="#11a2ea" stroke-width="1.1006" className="cls-2"/>
   <path d="m893.9 297.17c-38.9-38.9-90.29-60.31-144.71-60.31a204.7 204.7 0 0 0-109.8 31.88 14.61 14.61 0 0 0 15.61 24.68 175.5 175.5 0 0 1 94.15-27.35c95.46 0 173.39 76.48 175.74 171.39q0.06 2.21 0.06 4.41c0 96.93-78.86 175.8-175.8 175.8-72.51 0-124-29-153-86.19-22.28-44-22.69-89-22.69-89.44 0-2.08-0.28-51.39-25.31-101.25-23.44-46.87-73.67-102.79-179.38-102.79-54.42 0-105.81 21.42-144.7 60.32-37.84 37.84-59.14 87.51-60.26 140.29 1.12 52.78 22.42 102.45 60.26 140.29 38.89 38.89 90.28 60.31 144.7 60.31a204.47 204.47 0 0 0 112.44-33.58 14.61 14.61 0 1 0-16-24.44 175.3 175.3 0 0 1-96.44 28.81c-95.46 0-173.39-76.45-175.77-171.35q-0.06-2.2-0.06-4.41c0-96.94 78.87-175.8 175.8-175.8 72.52 0 124 28.86 152.92 85.77 22.24 43.73 22.64 88.57 22.64 89 0 2.09 0.3 51.59 25.34 101.66 23.55 47.08 73.8 103.19 179.52 103.19 54.42 0 105.81-21.42 144.71-60.31 37.84-37.84 59.13-87.51 60.25-140.29-1.12-52.78-22.38-102.46-60.22-140.29z" fill="#212121" stroke-width="1.1006" className="cls-3"/>
  </g>
 </g>
</svg>
