<svg width="24" height="24" viewBox="0 0 24 24" fill="none" xmlns="http://www.w3.org/2000/svg">
<path d="M22.1838 14.8262C20.6066 16.2558 18.6282 16.9219 16.2188 16.9219C11.1788 16.9219 7.07812 12.8212 7.07812 7.78125C7.07812 5.37183 7.74417 3.39342 9.17377 1.81617L10.8196 0L8.46103 0.667406C3.34964 2.1142 0 6.63591 0 12C0 18.5911 5.40891 24 12 24C17.3641 24 21.8858 20.6504 23.3326 15.539L24 13.1804L22.1838 14.8262Z" fill="#2953FF"/>
<path d="M22.5938 7.07812V5.67188H21.1875V7.07812H19.7812V8.48438H21.1875V9.89062H22.5938V8.48438H24V7.07812H22.5938Z" fill="#2953FF"/>
<path d="M12.7031 5.67188V4.26562H11.2969V5.67188H9.89062V7.07812H11.2969V8.48438H12.7031V7.07812H14.1094V5.67188H12.7031Z" fill="#2953FF"/>
<path d="M16.9219 11.2969H15.5156V12.7031H16.9219V11.2969Z" fill="#2953FF"/>
<path d="M16.9219 0H15.5156V1.40625H16.9219V0Z" fill="#2953FF"/>
</svg>
