<svg width="24" height="24" viewBox="0 0 24 24" fill="none" xmlns="http://www.w3.org/2000/svg">
<path d="M11.9995 4.96875C8.12271 4.96875 4.96826 8.1232 4.96826 12C4.96826 15.8768 8.12271 19.0312 11.9995 19.0312C15.8763 19.0312 19.0308 15.8768 19.0308 12C19.0308 8.1232 15.8763 4.96875 11.9995 4.96875Z" fill="white" fill-opacity="0.13"/>
<path d="M19.2983 16.2188C18.5671 17.4984 17.4843 18.5671 16.2046 19.3125L20.4374 20.4516L19.2983 16.2188Z" fill="white" fill-opacity="0.13"/>
<path d="M12.0001 0L9.83447 3.85777C10.5235 3.66094 11.2547 3.5625 12.0001 3.5625C12.7454 3.5625 13.4766 3.66094 14.1657 3.85777L12.0001 0Z" fill="white" fill-opacity="0.13"/>
<path d="M3.56201 3.5625L4.70107 7.78125C5.43237 6.50152 6.48706 5.44683 7.7667 4.70156L3.56201 3.5625Z" fill="white" fill-opacity="0.13"/>
<path d="M3.85742 9.82031L0.0136719 12L3.85742 14.1797C3.66055 13.4906 3.56206 12.7594 3.56206 12C3.56206 11.2406 3.6605 10.5094 3.85742 9.82031Z" fill="white" fill-opacity="0.13"/>
<path d="M4.70107 16.2188L3.56201 20.4516L7.79482 19.3125C6.51514 18.5671 5.43237 17.4984 4.70107 16.2188Z" fill="white" fill-opacity="0.13"/>
<path d="M11.9999 20.4374C11.2406 20.4374 10.5093 20.339 9.80615 20.1421L11.9999 23.9999L14.1937 20.1421C13.4905 20.339 12.7592 20.4374 11.9999 20.4374Z" fill="white" fill-opacity="0.13"/>
<path d="M16.2261 4.7087C17.4983 5.44909 18.5584 6.51011 19.297 7.78351L20.442 3.56458L16.2261 4.7087Z" fill="white" fill-opacity="0.13"/>
<path d="M23.9863 12.0068L20.1448 9.83228C20.3296 10.5254 20.4375 11.2494 20.4375 12C20.4375 12.7563 20.3282 13.486 20.1406 14.184L23.9863 12.0068Z" fill="white" fill-opacity="0.13"/>
</svg>
