<?xml version="1.0" encoding="UTF-8" standalone="no"?>
<svg
   xmlns="http://www.w3.org/2000/svg"
   id="Layer_3"
   data-name="Layer 3"
   viewBox="0 0 1000 1000"
   version="1.1"
   width="200px"
   height="200px">
  <path
     style="fill:#ffffff;fill-opacity:1;stroke:#212121;stroke-width:25;stroke-linecap:round;stroke-linejoin:round;stroke-opacity:1"
     id="path902"
     d="M 989.46628,500 A 489.46628,487.35959 0 0 1 500.16658,987.35956 489.46628,487.35959 0 0 1 10.533835,500.33172 489.46628,487.35959 0 0 1 499.50026,12.640665 489.46628,487.35959 0 0 1 989.46582,499.33655" />
  <g
     id="g898"
     transform="matrix(0.90333763,0,0,0.9171621,54.626839,102.64869)"
     style="stroke-width:1.09863">
    <line
       style="fill:none;stroke:#212121;stroke-width:27.8173px;stroke-linecap:round"
       className="cls-1"
       x1="45.849998"
       y1="239.67"
       x2="45.849998"
       y2="626.81"
       id="line882" />
    <path
       style="fill:#11a2ea;stroke-width:1.09863"
       className="cls-2"
       d="m 368.77,238 c 105.71,0 155.94,55.88 179.47,102.75 25,49.86 25.31,99.17 25.31,101.25 0,0.41 0.41,45.48 22.69,89.44 29,57.19 80.44,86.19 153,86.19 96.94,0 175.8,-78.87 175.8,-175.8 q 0,-2.21 -0.06,-4.41 c -2.35,94.9 -80.28,171.39 -175.74,171.39 -72.51,0 -124,-29 -153,-86.19 -22.28,-44 -22.69,-89 -22.69,-89.45 0,-2.07 -0.28,-51.38 -25.31,-101.24 -23.53,-46.87 -73.76,-102.75 -179.47,-102.75 -54.42,0 -105.81,21.42 -144.7,60.32 -38.89,38.9 -60.32,90.28 -60.32,144.7 0,1.47 0,2.94 0.06,4.41 1.12,-52.78 22.42,-102.45 60.26,-140.29 C 263,259.46 314.35,238 368.77,238 Z"
       id="path884" />
    <path
       style="fill:#212121;stroke-width:1.09863"
       className="cls-3"
       d="M 893.9,297.17 C 855,258.27 803.61,236.86 749.19,236.86 a 204.7,204.7 0 0 0 -109.8,31.88 14.61,14.61 0 0 0 15.61,24.68 175.5,175.5 0 0 1 94.15,-27.35 c 95.46,0 173.39,76.48 175.74,171.39 q 0.06,2.21 0.06,4.41 c 0,96.93 -78.86,175.8 -175.8,175.8 -72.51,0 -124,-29 -153,-86.19 -22.28,-44 -22.69,-89 -22.69,-89.44 0,-2.08 -0.28,-51.39 -25.31,-101.25 C 524.71,293.92 474.48,238 368.77,238 c -54.42,0 -105.81,21.42 -144.7,60.32 -37.84,37.84 -59.14,87.51 -60.26,140.29 1.12,52.78 22.42,102.45 60.26,140.29 38.89,38.89 90.28,60.31 144.7,60.31 a 204.47,204.47 0 0 0 112.44,-33.58 14.61,14.61 0 1 0 -16,-24.44 A 175.3,175.3 0 0 1 368.77,610 C 273.31,610 195.38,533.55 193,438.65 q -0.06,-2.2 -0.06,-4.41 c 0,-96.94 78.87,-175.8 175.8,-175.8 72.52,0 124,28.86 152.92,85.77 22.24,43.73 22.64,88.57 22.64,89 0,2.09 0.3,51.59 25.34,101.66 23.55,47.08 73.8,103.19 179.52,103.19 54.42,0 105.81,-21.42 144.71,-60.31 C 931.71,539.91 953,490.24 954.12,437.46 953,384.68 931.74,335 893.9,297.17 Z"
       id="path886" />
  </g>
  
</svg>
